<svg width="54" height="54" viewBox="0 0 54 54" fill="none" xmlns="http://www.w3.org/2000/svg">
<g clip-path="url(#clip0_7_250)">
<path fill-rule="evenodd" clip-rule="evenodd" d="M26.9195 0C12.0337 0 0 12.375 0 27.6846C0 39.9223 7.71043 50.2813 18.4068 53.9477C19.7442 54.2233 20.234 53.352 20.234 52.6191C20.234 51.9772 20.1899 49.7773 20.1899 47.4851C12.7016 49.1355 11.1422 44.1849 11.1422 44.1849C9.93876 40.9764 8.15565 40.1518 8.15565 40.1518C5.70471 38.4559 8.33418 38.4559 8.33418 38.4559C11.0529 38.6392 12.4795 41.2976 12.4795 41.2976C14.8858 45.5141 18.7633 44.3228 20.3233 43.5892C20.5459 41.8016 21.2595 40.5641 22.0171 39.8767C16.0446 39.2349 9.76078 36.8516 9.76078 26.2176C9.76078 23.1924 10.8298 20.7174 12.5236 18.7926C12.2563 18.1052 11.3202 15.2629 12.7914 11.4587C12.7914 11.4587 15.0643 10.7252 20.1894 14.3004C22.3836 13.6944 24.6465 13.3862 26.9195 13.3836C29.1925 13.3836 31.5096 13.7048 33.6492 14.3004C38.7748 10.7252 41.0477 11.4587 41.0477 11.4587C42.5189 15.2629 41.5822 18.1052 41.315 18.7926C43.0534 20.7174 44.0783 23.1924 44.0783 26.2176C44.0783 36.8516 37.7945 39.1888 31.7773 39.8767C32.7582 40.7475 33.6045 42.3973 33.6045 45.0101C33.6045 48.7226 33.5604 51.7022 33.5604 52.6185C33.5604 53.352 34.0509 54.2233 35.3876 53.9482C46.084 50.2808 53.7945 39.9223 53.7945 27.6846C53.8385 12.375 41.7607 0 26.9195 0Z" fill="#752B71"/>
</g>
<defs>
<clipPath id="clip0_7_250">
<rect width="54" height="54" fill="white"/>
</clipPath>
</defs>
</svg>
