<svg width="54" height="56" viewBox="0 0 54 56" fill="none" xmlns="http://www.w3.org/2000/svg">
<path d="M27 21.3325C25.7285 21.333 24.4857 21.7245 23.4287 22.4574C22.3717 23.1903 21.548 24.2318 21.0618 25.4502C20.5755 26.6686 20.4485 28.0091 20.6969 29.3023C20.9452 30.5955 21.5577 31.7833 22.457 32.7155C23.3563 33.6477 24.5019 34.2825 25.749 34.5396C26.9961 34.7966 28.2887 34.6645 29.4634 34.1597C30.6381 33.655 31.642 32.8004 32.3484 31.704C33.0548 30.6076 33.4318 29.3186 33.4318 28C33.4305 26.2316 32.7524 24.5361 31.5464 23.2859C30.3404 22.0358 28.7052 21.3332 27 21.3325ZM42.032 16.2075C41.7047 15.3473 41.2104 14.566 40.5799 13.9121C39.9494 13.2582 39.196 12.7457 38.3665 12.4062C35.8353 11.37 29.8085 11.6025 27 11.6025C24.1915 11.6025 18.1708 11.3612 15.6323 12.4062C14.8028 12.7457 14.0494 13.2582 13.4189 13.9121C12.7883 14.566 12.2941 15.3473 11.9668 16.2075C10.9688 18.8325 11.1917 25.0888 11.1917 27.9988C11.1917 30.9088 10.9688 37.1575 11.9716 39.7912C12.2989 40.6514 12.7932 41.4327 13.4237 42.0866C14.0542 42.7405 14.8076 43.2531 15.6371 43.5925C18.1683 44.6287 24.1951 44.3963 27.0048 44.3963C29.8145 44.3963 35.8329 44.6375 38.3713 43.5925C39.2008 43.2531 39.9542 42.7405 40.5847 42.0866C41.2153 41.4327 41.7095 40.6514 42.0368 39.7912C43.0433 37.1662 42.8119 30.91 42.8119 28C42.8119 25.09 43.0433 18.8425 42.0368 16.2087L42.032 16.2075ZM27 38.25C25.0451 38.25 23.1342 37.6488 21.5088 36.5226C19.8834 35.3963 18.6165 33.7954 17.8684 31.9225C17.1203 30.0496 16.9246 27.9886 17.306 26.0003C17.6874 24.012 18.6287 22.1856 20.011 20.7522C21.3933 19.3187 23.1544 18.3424 25.0717 17.947C26.989 17.5515 28.9764 17.7544 30.7824 18.5302C32.5885 19.306 34.1321 20.6198 35.2182 22.3054C36.3042 23.991 36.8839 25.9727 36.8839 28C36.8855 29.3465 36.6309 30.6801 36.1348 31.9244C35.6386 33.1688 34.9107 34.2994 33.9925 35.2515C33.0744 36.2036 31.9842 36.9586 30.7843 37.4731C29.5844 37.9876 28.2984 38.2516 27 38.25ZM37.2913 19.7125C36.835 19.7127 36.3888 19.5726 36.0093 19.3099C35.6297 19.0472 35.3338 18.6736 35.159 18.2364C34.9842 17.7993 34.9384 17.3182 35.0273 16.854C35.1161 16.3898 35.3358 15.9634 35.6584 15.6287C35.981 15.294 36.3921 15.066 36.8396 14.9736C37.2872 14.8811 37.7511 14.9285 38.1727 15.1095C38.5944 15.2905 38.9547 15.5972 39.2083 15.9907C39.4618 16.3841 39.5972 16.8468 39.5972 17.32C39.5985 17.6343 39.5399 17.9457 39.4248 18.2364C39.3098 18.5272 39.1405 18.7915 38.9267 19.0142C38.7129 19.237 38.4589 19.4138 38.179 19.5345C37.8992 19.6551 37.5992 19.7173 37.2962 19.7175L37.2913 19.7125ZM48.2143 0H5.78571C4.25125 0 2.77963 0.632141 1.6946 1.75736C0.609565 2.88258 0 4.4087 0 6L0 50C0 51.5913 0.609565 53.1174 1.6946 54.2426C2.77963 55.3679 4.25125 56 5.78571 56H48.2143C49.7488 56 51.2204 55.3679 52.3054 54.2426C53.3904 53.1174 54 51.5913 54 50V6C54 4.4087 53.3904 2.88258 52.3054 1.75736C51.2204 0.632141 49.7488 0 48.2143 0ZM46.1507 36.25C45.9952 39.4538 45.2901 42.2925 43.0349 44.625C40.7796 46.9575 38.0447 47.7038 34.959 47.8563C31.7756 48.0425 22.2316 48.0425 19.0483 47.8563C15.9589 47.695 13.2312 46.9625 10.9724 44.625C8.71353 42.2875 8.00357 39.4475 7.85652 36.25C7.67692 32.9475 7.67692 23.0487 7.85652 19.75C8.01201 16.5462 8.7087 13.7075 10.9724 11.375C13.236 9.0425 15.971 8.305 19.0483 8.1525C22.2316 7.96625 31.7756 7.96625 34.959 8.1525C38.0483 8.31375 40.7845 9.04625 43.0349 11.3837C45.2853 13.7213 46.0037 16.5612 46.1507 19.765C46.3303 23.055 46.3303 32.945 46.1507 36.25Z" fill="#752B71"/>
</svg>
