<svg width="54" height="54" viewBox="0 0 54 54" fill="none" xmlns="http://www.w3.org/2000/svg">
<g clip-path="url(#clip0_7_232)">
<path d="M8.69482 9.38171H45.0765V45.5339H8.69482V9.38171Z" fill="white"/>
<path d="M10.8 43.2V20.574H17.712V43.2H10.8ZM17.928 14.31C17.982 16.254 16.524 17.82 14.202 17.82C12.042 17.82 10.638 16.254 10.638 14.31C10.638 12.312 12.096 10.8 14.31 10.8C16.524 10.8 17.928 12.312 17.928 14.31ZM36.072 43.2V30.672C36.072 27.756 35.1 25.758 32.562 25.758C30.672 25.758 29.538 27.108 28.998 28.404C28.836 28.89 28.782 29.538 28.782 30.186V43.2H21.87V27.81C21.87 25.002 21.762 22.626 21.708 20.574H27.702L28.026 23.76H28.134C29.052 22.248 31.32 20.088 35.046 20.088C39.582 20.088 43.038 23.166 43.038 29.862V43.2H36.072ZM54 4.752C54 2.16 51.84 0 49.248 0H4.752C2.16 0 0 2.16 0 4.752V49.248C0 51.84 2.16 54 4.752 54H49.248C51.84 54 54 51.84 54 49.248V4.752Z" fill="#8D468A"/>
</g>
<defs>
<clipPath id="clip0_7_232">
<rect width="54" height="54" fill="white"/>
</clipPath>
</defs>
</svg>
