<svg width="54" height="54" viewBox="0 0 54 54" fill="none" xmlns="http://www.w3.org/2000/svg">
<g clip-path="url(#clip0_7_228)">
<path d="M27 53.9831C21.7209 53.9839 16.5578 52.4342 12.1517 49.5264L1.77697 52.8407L5.14016 42.8169C1.79162 38.2237 -0.00859231 32.6842 3.0835e-05 27C3.0835e-05 12.1196 12.1045 0.0168457 26.9832 0.0168457C41.8618 0.0168457 53.9663 12.1196 53.9663 27C53.9663 41.8803 41.8669 53.9831 26.9832 53.9831H27Z" fill="#FEFEFE"/>
<path d="M27 0.0153809C12.1197 0.0153809 0.0161133 12.1194 0.0161133 26.9993C0.0161133 32.9002 1.91981 38.3736 5.15591 42.8158L1.79221 52.8424L12.1627 49.5271C16.4294 52.3508 21.5222 53.9846 27.0112 53.9846C41.8916 53.9846 53.9952 41.8801 53.9952 27.0006C53.9952 12.1212 41.8911 0.0167233 27.0112 0.0167233H26.9956L27 0.0153809Z" fill="#8D468A"/>
<path d="M19.4652 13.7227C18.959 12.4689 18.5455 12.4234 17.7524 12.3727L16.8479 12.339C15.8185 12.339 14.7385 12.6427 14.0872 13.3059C13.294 14.1159 11.3264 16.0026 11.3264 19.8737C11.3264 23.7448 14.1496 27.4877 14.5327 28.0125C14.9292 28.5187 20.0373 36.5951 27.9702 39.879C34.1735 42.4491 36.0129 42.2111 37.4253 41.909C39.4874 41.4652 42.0727 39.9414 42.724 38.1021C43.3754 36.2627 43.3754 34.6933 43.183 34.3558C42.9907 34.0183 42.4692 33.8496 41.6761 33.4361C40.883 33.0227 37.0287 31.136 36.298 30.8812C35.5842 30.6112 34.9025 30.7074 34.3625 31.4685C33.6031 32.5316 32.8555 33.6116 32.2531 34.2596C31.7772 34.7659 30.9993 34.8334 30.3496 34.5634C29.4772 34.1989 27.0337 33.3416 24.0215 30.6602C21.6894 28.5846 20.1031 25.9959 19.6424 25.2197C19.1817 24.4266 19.5952 23.9659 19.9597 23.5372C20.3562 23.0445 20.7359 22.6969 21.1342 22.2379C21.5324 21.7789 21.7535 21.5392 22.0066 21.0009C22.2766 20.4947 22.0859 19.9378 21.8952 19.5412C21.7045 19.1447 20.1183 15.2719 19.4686 13.7025L19.4652 13.7227Z" fill="#FEFEFE"/>
</g>
<defs>
<clipPath id="clip0_7_228">
<rect width="54" height="54" fill="white"/>
</clipPath>
</defs>
</svg>
